<svg xmlns="http://www.w3.org/2000/svg" viewBox="0 0 669.98 140">
	<path fill="#AB0101"
	      d="M30.25 140c-3.67 0-6.75-1.34-9.25-4-2.5-2.67-3.75-6-3.75-10V89c0-4.83-.29-8-.88-9.5-.59-1.5-1.96-2.25-4.12-2.25H6.5c-1.84 0-3.38-.71-4.62-2.12C.63 73.72 0 71.92 0 69.75c0-2 .62-3.71 1.88-5.12 1.25-1.41 2.79-2.12 4.62-2.12h5.75c2.16 0 3.54-.75 4.12-2.25.58-1.5.88-4.66.88-9.5V14c0-4 1.25-7.33 3.75-10 2.5-2.66 5.58-4 9.25-4H44c1.83 0 3.29.62 4.38 1.88C49.46 3.13 50 4.67 50 6.5c0 3.84-2 5.75-6 5.75h-6.75c-2.67 0-4.46.5-5.38 1.5-.92 1-1.38 2.84-1.38 5.5V50.5c0 2.5-.25 5.67-.75 9.5-.5 3.84-2.34 7.09-5.5 9.75 3.16 2.67 5 5.96 5.5 9.88.5 3.92.75 7.12.75 9.62v31.5c0 2.66.46 4.5 1.38 5.5.91 1 2.71 1.5 5.38 1.5H44c4 0 6 1.91 6 5.75 0 1.83-.54 3.38-1.62 4.62-1.09 1.25-2.54 1.88-4.38 1.88H30.25Zm68.25-23.75c-4.84 0-9.75-.62-14.75-1.88s-9.42-3.21-13.25-5.88c-2-1.83-3-3.83-3-6s.88-4.08 2.62-5.75c1.75-1.66 3.71-2.5 5.88-2.5 1.16 0 2.33.34 3.5 1 3 1.84 6.46 3.29 10.38 4.38 3.91 1.09 7.62 1.62 11.12 1.62s6.21-.58 8.62-1.75c2.41-1.16 3.62-3.08 3.62-5.75s-1.17-4.66-3.5-6c-2.34-1.33-6.34-2.33-12-3-2.34-.33-5.12-.75-8.38-1.25s-6.46-1.41-9.62-2.75a20.18 20.18 0 0 1-8-6c-2.17-2.66-3.25-6.25-3.25-10.75 0-7.33 2.71-13.16 8.12-17.5 5.41-4.33 12.71-6.5 21.88-6.5 5.33 0 10.38.67 15.12 2 4.75 1.34 8.29 3 10.62 5 1.83 1.5 2.75 3.25 2.75 5.25 0 2.17-.75 4.09-2.25 5.75-1.5 1.67-3.34 2.5-5.5 2.5-1.17 0-2.25-.25-3.25-.75-2.67-1.5-5.62-2.62-8.88-3.38s-6.38-1.12-9.38-1.12c-3.5 0-6.46.54-8.88 1.62-2.42 1.09-3.62 2.79-3.62 5.12 0 1.67.71 3.12 2.12 4.38 1.41 1.25 5.12 2.29 11.12 3.12 2.83.34 6.04.84 9.62 1.5 3.58.67 7.04 1.71 10.38 3.12 3.33 1.42 6.08 3.62 8.25 6.62 2.16 3 3.25 7.09 3.25 12.25s-1.5 9.71-4.5 13.12c-3 3.42-6.88 5.96-11.62 7.62s-9.88 2.5-15.38 2.5Zm109.25 0c-2.17 0-4.12-.67-5.88-2s-2.62-3.25-2.62-5.75V77c0-7.33-1.62-12.75-4.88-16.25s-7.54-5.25-12.88-5.25c-6.84 0-11.79 2.21-14.88 6.62-3.09 4.42-4.62 9.29-4.62 14.62v31.75c0 2.5-.88 4.42-2.62 5.75s-3.71 2-5.88 2-4.12-.67-5.88-2-2.62-3.25-2.62-5.75V49.75c0-2.83.88-4.96 2.62-6.38 1.75-1.41 3.71-2.12 5.88-2.12s4.12.71 5.88 2.12c1.75 1.42 2.62 3.54 2.62 6.38 2.83-2.83 6.5-5.16 11-7 4.5-1.83 8.75-2.75 12.75-2.75 9.33 0 16.75 3 22.25 9s8.25 14.84 8.25 26.5v33c0 2.5-.92 4.42-2.75 5.75-1.84 1.33-3.75 2-5.75 2Zm36.24-90c-3.17 0-5.88-1.04-8.12-3.12-2.25-2.08-3.38-4.62-3.38-7.62 0-2.83 1.12-5.29 3.38-7.38 2.25-2.08 4.96-3.12 8.12-3.12 3 0 5.58 1.04 7.75 3.12 2.16 2.09 3.25 4.54 3.25 7.38 0 3-1.09 5.54-3.25 7.62-2.17 2.09-4.75 3.12-7.75 3.12Zm-.25 90c-2.17 0-4.12-.67-5.88-2s-2.62-3.25-2.62-5.75v-60c0-2.83.88-4.96 2.62-6.38 1.75-1.41 3.71-2.12 5.88-2.12s4.12.71 5.88 2.12c1.75 1.42 2.62 3.54 2.62 6.38v60c0 2.5-.88 4.42-2.62 5.75s-3.71 2-5.88 2Zm62 0c-11.17 0-20.34-3.58-27.5-10.75-7.17-7.16-10.75-16.5-10.75-28 0-7.33 1.66-13.83 5-19.5 3.33-5.66 7.88-10.08 13.62-13.25 5.75-3.16 12.29-4.75 19.62-4.75 10 0 18.5 2.34 25.5 7 2.33 1.5 3.5 3.59 3.5 6.25s-.84 4.75-2.5 6.25c-1.67 1.5-3.59 2.25-5.75 2.25-1.5 0-2.84-.33-4-1-6.17-4.16-11.92-6-17.25-5.5-6.5.67-11.59 2.88-15.25 6.62-3.67 3.75-5.5 9.04-5.5 15.88 0 7.17 1.96 12.79 5.88 16.88 3.91 4.09 9.46 6.12 16.62 6.12 6.33 0 12.66-2.41 19-7.25 1.33-1.16 3.08-1.75 5.25-1.75 2.5 0 4.38.96 5.62 2.88 1.25 1.92 1.88 3.71 1.88 5.38 0 2.34-1.09 4.5-3.25 6.5-4.17 3.67-8.75 6.21-13.75 7.62s-10.34 2.12-16 2.12Zm55.25 0c-2.17 0-4.12-.67-5.88-2s-2.62-3.25-2.62-5.75v-95c0-2.83.88-4.96 2.62-6.38 1.75-1.41 3.71-2.12 5.88-2.12s4.12.71 5.88 2.12c1.75 1.42 2.62 3.54 2.62 6.38v48.75c0 1.67.25 2.5.75 2.5s1.16-.33 2-1l31-22.25c1.83-1 3.5-1.5 5-1.5 2.33 0 4.25.79 5.75 2.38 1.5 1.59 2.25 3.29 2.25 5.12 0 2.84-1.34 5.09-4 6.75l-25.5 16c-1.5 1-2.25 2-2.25 3s.58 2.09 1.75 3.25l27.25 25.75c1.83 2.17 2.75 4.17 2.75 6 0 2.17-.84 4.04-2.5 5.62-1.67 1.58-3.59 2.38-5.75 2.38s-4.17-.92-6-2.75l-29.25-29c-1.17-1.16-1.92-1.75-2.25-1.75-.67 0-1 1-1 3v22.75c0 2.5-.88 4.42-2.62 5.75s-3.71 2-5.88 2Zm106.75 0c-4.67 0-8.84-.79-12.5-2.38-3.67-1.58-6.84-3.71-9.5-6.38v1c0 2.5-.88 4.42-2.62 5.75s-3.71 2-5.88 2-4.12-.67-5.88-2-2.62-3.25-2.62-5.75V13.5c0-2.83.88-4.96 2.62-6.38 1.75-1.41 3.71-2.12 5.88-2.12s4.12.71 5.88 2.12c1.75 1.42 2.62 3.54 2.62 6.38v35c2.66-2.66 5.83-4.75 9.5-6.25 3.66-1.5 7.83-2.25 12.5-2.25 7.33 0 13.79 1.62 19.38 4.88 5.58 3.25 9.96 7.71 13.12 13.38 3.16 5.67 4.75 12.09 4.75 19.25s-1.59 13.96-4.75 19.88c-3.17 5.92-7.54 10.54-13.12 13.88-5.59 3.33-12.04 5-19.38 5Zm-1.5-15.5c6.5 0 11.75-2.12 15.75-6.38s6-9.88 6-16.88-2-12-6-16-9.25-6-15.75-6-11.34 2-15 6c-3.67 4-5.5 9.34-5.5 16 0 7 1.83 12.62 5.5 16.88 3.66 4.25 8.66 6.38 15 6.38Zm62.74-74.5c-3.17 0-5.88-1.04-8.12-3.12-2.25-2.08-3.38-4.62-3.38-7.62 0-2.83 1.12-5.29 3.38-7.38 2.25-2.08 4.96-3.12 8.12-3.12 3 0 5.58 1.04 7.75 3.12 2.16 2.09 3.25 4.54 3.25 7.38 0 3-1.09 5.54-3.25 7.62-2.17 2.09-4.75 3.12-7.75 3.12Zm-.25 90c-2.17 0-4.12-.67-5.88-2s-2.62-3.25-2.62-5.75v-60c0-2.83.88-4.96 2.62-6.38 1.75-1.41 3.71-2.12 5.88-2.12s4.12.71 5.88 2.12c1.75 1.42 2.62 3.54 2.62 6.38v60c0 2.5-.88 4.42-2.62 5.75s-3.71 2-5.88 2Zm57 0c-6.5 0-11.84-2-16-6-4.17-4-6.25-10-6.25-18V60.5c0-1.66-.84-2.5-2.5-2.5h-4.5c-2.17 0-4-.71-5.5-2.12-1.5-1.41-2.25-3.21-2.25-5.38 0-2.33.75-4.25 2.25-5.75s3.33-2.25 5.5-2.25h4.5c1.66 0 2.5-.83 2.5-2.5V19c0-2.33.79-4.21 2.38-5.62 1.58-1.41 3.54-2.12 5.88-2.12 2.5 0 4.54.71 6.12 2.12 1.58 1.42 2.38 3.29 2.38 5.62v21c0 1.67.83 2.5 2.5 2.5h13.5c2 0 3.75.75 5.25 2.25s2.25 3.42 2.25 5.75c0 2.17-.71 3.96-2.12 5.38S598.33 58 596 58h-13.25c-1.67 0-2.5.84-2.5 2.5V90c0 7 2.83 10.5 8.5 10.5 1.66 0 3.41-.25 5.25-.75 1.83-.5 3.08-.75 3.75-.75 2.33 0 4.12.75 5.38 2.25s1.88 3.25 1.88 5.25c0 1.5-.42 2.96-1.25 4.38-.84 1.42-2.17 2.46-4 3.12-1.84.66-4.12 1.21-6.88 1.62-2.75.41-5.12.62-7.12.62Zm54 23.75h-13.75c-1.67 0-3.09-.62-4.25-1.88-1.17-1.25-1.75-2.79-1.75-4.62 0-3.84 2-5.75 6-5.75h6.75c2.66 0 4.46-.5 5.38-1.5.91-1 1.38-2.84 1.38-5.5v-31.5c0-2.5.25-5.71.75-9.62.5-3.91 2.33-7.21 5.5-9.88-3.17-2.66-5-5.91-5.5-9.75-.5-3.83-.75-7-.75-9.5V19.25c0-2.66-.46-4.5-1.38-5.5-.92-1-2.71-1.5-5.38-1.5h-6.75c-4 0-6-1.91-6-5.75 0-1.83.58-3.38 1.75-4.62C622.89.63 624.31 0 625.98 0h13.75c3.83 0 6.96 1.34 9.38 4 2.41 2.67 3.62 6 3.62 10v36.75c0 4.84.29 8 .88 9.5.58 1.5 1.96 2.25 4.12 2.25h5.75c1.83 0 3.38.71 4.62 2.12 1.25 1.42 1.88 3.12 1.88 5.12 0 2.17-.62 3.96-1.88 5.38-1.25 1.42-2.79 2.12-4.62 2.12h-5.75c-2.17 0-3.54.75-4.12 2.25-.59 1.5-.88 4.67-.88 9.5v37c0 4-1.21 7.33-3.62 10-2.42 2.66-5.54 4-9.38 4Z"/>
</svg>
